<?xml version="1.0" standalone="no"?>
<!DOCTYPE svg PUBLIC "-//W3C//DTD SVG 20010904//EN"
 "http://www.w3.org/TR/2001/REC-SVG-20010904/DTD/svg10.dtd">
<svg version="1.0" xmlns="http://www.w3.org/2000/svg"
 width="1192.000000pt" height="1192.000000pt" viewBox="0 0 1192.000000 1192.000000"
 preserveAspectRatio="xMidYMid meet">
<metadata>
Created by potrace 1.11, written by Peter Selinger 2001-2013
</metadata>
<g transform="translate(0.000000,1192.000000) scale(0.100000,-0.100000)"
fill="#000000" stroke="none">
<path d="M4435 8989 c-63 -5 -106 -14 -145 -32 -58 -26 -109 -71 -91 -81 5 -4
13 0 18 7 14 23 67 54 132 77 65 23 80 23 255 6 74 -7 68 0 -15 16 -42 9 -95
11 -154 7z"/>
<path d="M4690 8941 c0 -5 8 -12 18 -15 19 -6 36 -46 47 -108 5 -25 1 -52 -10
-83 -18 -45 -15 -69 6 -48 18 18 28 85 20 130 -5 23 -6 45 -3 48 3 3 1 5 -5 5
-6 0 -14 11 -17 24 -6 23 -56 65 -56 47z"/>
<path d="M3921 8744 c-14 -13 -28 -21 -33 -18 -5 3 -7 2 -6 -3 2 -5 -13 -29
-34 -53 -44 -54 -73 -145 -63 -198 8 -44 47 -129 73 -158 51 -59 177 -84 223
-44 l24 22 -25 -16 c-32 -21 -104 -21 -124 0 -9 8 -16 13 -16 9 0 -3 -11 2
-25 11 -14 9 -22 21 -18 27 3 5 1 7 -5 3 -6 -3 -22 17 -39 51 -23 49 -28 70
-27 134 0 58 5 84 19 105 11 16 20 32 20 36 0 8 24 38 63 80 32 34 26 44 -7
12z"/>
<path d="M3968 8763 c6 -2 18 -2 25 0 6 3 1 5 -13 5 -14 0 -19 -2 -12 -5z"/>
<path d="M4650 8558 c0 -20 50 -122 56 -115 3 3 2 12 -2 19 -5 7 -9 15 -10 18
-1 3 -7 21 -15 40 -7 19 -12 38 -11 43 1 4 -2 7 -8 7 -5 0 -10 -6 -10 -12z"/>
<path d="M4434 8535 c-15 -11 -16 -14 -3 -15 8 0 24 7 35 15 15 11 16 14 3 15
-8 0 -24 -7 -35 -15z"/>
<path d="M4776 8335 c40 -39 57 -47 28 -13 -24 28 -47 47 -57 48 -4 0 9 -16
29 -35z"/>
<path d="M4130 8311 c0 -6 5 -13 10 -16 6 -4 8 -11 5 -16 -4 -5 -2 -9 4 -9 5
0 20 -17 32 -37 13 -21 35 -53 50 -72 16 -19 26 -38 23 -43 -3 -4 -1 -8 5 -8
5 0 20 -21 32 -46 28 -54 36 -61 44 -35 4 13 -3 35 -20 60 -14 22 -25 43 -25
47 0 3 -6 12 -12 19 -26 28 -73 89 -71 91 2 4 -67 74 -73 74 -2 0 -4 -4 -4 -9z"/>
<path d="M5661 8276 c-5 -6 -21 -54 -36 -105 -43 -154 -50 -158 -129 -85 -27
25 -48 24 -74 -4 -55 -57 -92 -119 -92 -151 0 -16 7 -21 28 -22 15 -1 31 -1
36 0 5 1 32 -4 59 -11 45 -11 52 -17 69 -55 10 -23 23 -45 28 -48 14 -9 12 5
-3 36 -20 37 -6 68 27 62 14 -3 28 -14 32 -26 6 -19 10 -17 45 24 63 71 72 79
91 79 21 0 22 -16 3 -50 -17 -30 -18 -40 -5 -40 6 0 10 7 10 15 0 8 4 15 10
15 6 0 9 3 8 8 -1 4 3 17 10 30 10 18 11 30 1 56 -11 30 -10 42 9 91 26 68 27
91 6 99 -30 11 -40 6 -53 -29 -12 -35 -35 -46 -44 -22 -2 6 -1 21 4 32 4 11 8
39 8 61 1 33 -3 43 -19 47 -10 3 -24 0 -29 -7z m15 -123 c-4 -27 -11 -71 -15
-99 -4 -28 -17 -64 -29 -81 -12 -17 -22 -36 -22 -42 0 -11 -17 -15 -58 -11
-12 1 -42 22 -65 47 l-44 46 -26 -18 c-26 -17 -27 -17 -27 3 0 30 38 72 66 72
30 0 63 -16 85 -41 9 -10 19 -16 23 -12 3 3 6 -9 6 -28 l1 -34 19 23 c10 13
17 29 14 37 -6 13 28 128 48 168 18 35 31 19 24 -30z m103 -25 c-7 -13 -12
-24 -11 -26 5 -6 -11 -52 -18 -52 -5 0 -6 -9 -3 -19 3 -13 -4 -29 -21 -45 -27
-28 -56 -34 -56 -12 0 23 22 76 32 76 5 0 7 4 3 9 -3 5 -1 12 5 16 5 3 17 21
26 40 10 22 23 35 35 35 17 0 18 -3 8 -22z m-308 -168 c29 -16 25 -50 -6 -50
-14 0 -25 5 -25 11 0 5 -4 8 -9 4 -13 -7 -24 13 -17 30 6 18 29 19 57 5z"/>
<path d="M4652 8195 c-28 -20 -52 -32 -52 -28 0 5 -4 3 -8 -3 -4 -5 -38 -27
-76 -48 -83 -46 -146 -101 -146 -127 0 -15 11 -8 48 29 47 49 112 99 112 87 0
-4 7 1 16 9 8 9 22 16 30 16 8 0 14 4 14 8 0 7 63 42 80 45 3 0 11 7 18 14 7
7 25 13 40 13 21 0 24 2 12 10 -23 15 -31 13 -88 -25z"/>
<path d="M4940 8144 c-48 -16 -99 -41 -123 -61 -40 -32 -19 -29 58 11 55 28
75 33 128 32 53 -1 62 -4 65 -21 5 -21 -26 -85 -40 -85 -6 0 -21 -9 -35 -20
-14 -11 -29 -17 -34 -14 -5 3 -9 1 -9 -4 0 -5 -12 -15 -27 -22 -22 -10 -24
-14 -11 -17 9 -2 36 6 60 18 24 12 44 21 45 21 2 -1 14 10 29 25 29 29 58 89
49 102 -17 29 -110 49 -155 35z"/>
<path d="M4583 8086 c-6 -8 -9 -17 -6 -20 7 -7 33 13 33 25 0 13 -13 10 -27
-5z"/>
<path d="M4636 7985 c-11 -8 -15 -15 -10 -15 6 0 19 7 30 15 10 8 15 14 9 14
-5 0 -19 -6 -29 -14z"/>
<path d="M4294 7887 c-27 -15 -34 -27 -34 -65 0 -76 42 -109 133 -106 46 2 59
-5 63 -36 8 -45 58 -197 71 -210 12 -13 12 -11 4 15 -5 17 -21 71 -37 120 -15
50 -36 102 -46 118 -19 27 -51 36 -63 17 -3 -5 -21 -10 -40 -10 -41 0 -65 29
-65 78 0 49 16 72 50 72 17 0 30 3 30 8 0 11 -44 11 -66 -1z"/>
<path d="M5076 7879 c24 -101 25 -126 9 -259 -7 -56 12 -72 20 -18 9 61 10
188 1 215 -4 12 -9 32 -11 44 -3 12 -9 27 -15 33 -6 6 -8 1 -4 -15z"/>
<path d="M4958 7854 c-21 -19 -38 -33 -38 -29 0 3 -11 -2 -24 -10 -13 -9 -44
-17 -70 -18 -47 -2 -65 -16 -23 -18 35 -2 59 1 96 13 49 15 137 98 104 98 -5
0 -25 -16 -45 -36z"/>
<path d="M5350 7863 c0 -6 8 -21 18 -34 18 -23 92 -172 92 -185 0 -3 7 -12 15
-20 19 -19 19 -13 -1 34 -8 20 -15 38 -14 40 1 5 -53 107 -59 112 -4 3 -17 18
-29 34 -12 16 -22 24 -22 19z"/>
<path d="M5691 7827 c-12 -25 -21 -63 -21 -90 0 -26 -4 -47 -8 -47 -5 0 -10
-26 -11 -57 -1 -31 -4 -60 -7 -65 -3 -4 -23 -11 -45 -14 -22 -4 -37 -9 -34
-12 12 -12 47 -11 80 2 31 13 34 18 29 45 -5 25 6 109 31 228 3 12 12 29 21
37 13 14 13 16 1 16 -9 0 -25 -19 -36 -43z"/>
<path d="M4910 7730 c0 -5 5 -10 10 -10 6 0 10 5 10 10 0 6 -4 10 -10 10 -5 0
-10 -4 -10 -10z"/>
<path d="M5725 7558 c15 -44 26 -149 25 -262 0 -98 -21 -161 -63 -189 -12 -8
-33 -24 -46 -36 -68 -59 -174 -109 -198 -92 -9 6 -103 196 -103 208 0 3 -14
36 -32 72 -18 36 -33 71 -34 76 0 6 -8 27 -18 47 -17 41 -20 58 -8 58 17 0 90
-23 130 -42 24 -11 46 -17 48 -15 9 8 -144 67 -191 74 l-45 6 58 -114 c33 -63
72 -148 87 -189 16 -41 31 -77 34 -80 3 -3 7 -12 9 -20 2 -8 10 -28 19 -45 20
-40 29 -150 14 -169 -41 -50 -231 -111 -401 -131 -30 -3 -68 -8 -83 -11 -56
-11 -250 -28 -308 -27 -56 2 -118 22 -132 43 -6 11 -15 20 -20 20 -4 0 0 -11
9 -25 15 -24 15 -29 1 -63 -38 -90 -55 -189 -37 -223 7 -13 15 -42 17 -64 8
-75 23 -114 66 -166 23 -28 47 -59 52 -67 6 -8 24 -28 40 -43 33 -30 69 -31
93 -1 6 9 12 13 12 9 0 -3 12 5 27 19 25 23 26 28 17 63 -6 21 -7 48 -3 60 5
11 5 21 0 21 -4 0 -16 35 -26 78 -10 42 -19 80 -21 84 -9 16 44 -8 74 -34 39
-33 62 -36 62 -8 0 23 -27 81 -42 91 -5 3 -9 8 -8 10 1 2 -5 20 -15 39 -12 26
-29 40 -61 54 -24 10 -59 32 -77 49 l-32 31 35 7 c19 4 82 10 140 13 110 7
140 10 187 20 15 3 46 9 68 12 32 5 105 20 180 38 6 2 23 8 38 14 16 7 33 12
38 12 5 0 36 14 69 30 33 17 71 31 85 32 23 2 23 3 8 21 -36 39 -19 106 27
107 19 0 75 28 117 58 17 12 36 22 42 22 6 0 11 5 11 10 0 6 5 10 11 10 23 0
78 68 89 109 19 70 12 326 -10 374 -13 26 -34 39 -25 15z m-1158 -920 c15 -6
33 -12 40 -14 30 -6 133 -76 127 -86 -4 -7 -2 -8 4 -4 6 4 22 -12 36 -37 43
-73 30 -95 -28 -49 -16 12 -37 22 -48 22 -16 0 -18 -6 -14 -37 3 -21 14 -65
26 -98 12 -33 23 -77 24 -97 0 -21 4 -38 8 -38 4 0 5 -6 2 -14 -10 -27 -32 -5
-53 52 -11 31 -22 66 -23 77 -2 11 -5 22 -8 25 -3 3 -14 21 -23 40 l-18 35 5
-35 c7 -50 11 -63 19 -77 5 -7 6 -17 3 -22 -4 -5 -3 -11 2 -13 13 -5 52 -105
52 -132 0 -39 -34 -34 -51 7 -8 17 -13 35 -11 40 1 4 -2 7 -8 7 -5 0 -24 25
-41 55 -29 52 -46 72 -54 64 -2 -2 4 -20 12 -39 9 -19 15 -39 14 -43 -1 -5 3
-6 8 -3 8 6 18 -8 19 -28 0 -5 6 -12 13 -17 10 -6 9 -9 -4 -15 -13 -5 -27 3
-48 27 -44 51 -56 78 -64 143 -3 33 -13 79 -22 104 -17 52 -12 97 21 175 16
40 34 46 83 25z"/>
<path d="M4308 7509 c-21 -11 -38 -16 -38 -12 0 4 -7 -2 -15 -13 -8 -10 -15
-14 -15 -9 0 7 -3 7 -8 0 -4 -5 -39 -32 -79 -58 -66 -44 -102 -78 -158 -148
-46 -58 -78 -138 -64 -160 7 -12 9 -12 10 1 1 8 1 19 0 24 -1 6 10 34 25 63
28 56 208 238 225 227 5 -3 9 0 9 5 0 14 120 71 165 78 19 3 35 10 35 14 0 16
-54 9 -92 -12z"/>
<path d="M5488 7508 c-1 -13 -3 -32 -4 -43 -1 -11 -2 -33 -3 -48 -1 -19 -8
-30 -23 -36 l-22 -8 22 -5 c13 -4 22 -14 22 -25 0 -11 6 -27 13 -36 10 -14 12
4 13 103 0 66 -3 120 -8 120 -4 0 -9 -10 -10 -22z"/>
<path d="M4396 7501 c-3 -5 1 -11 9 -15 9 -3 15 0 15 9 0 16 -16 20 -24 6z"/>
<path d="M4440 7415 c34 -99 51 -239 52 -440 0 -98 3 -128 9 -100 8 41 5 261
-5 325 -3 19 -8 55 -11 79 -8 55 -44 173 -56 186 -5 5 0 -17 11 -50z"/>
<path d="M4994 7447 c-10 -6 -25 -17 -33 -25 -29 -29 -121 -62 -188 -68 -75
-7 -139 6 -160 33 -7 9 -30 19 -52 23 -40 7 -41 7 -34 -19 3 -14 9 -33 13 -41
5 -8 8 -18 8 -23 0 -4 3 -25 7 -47 4 -22 8 -52 10 -66 1 -14 9 -32 17 -40 21
-21 103 -40 165 -40 29 1 53 -2 53 -6 0 -4 6 -5 13 -3 6 2 55 6 107 9 188 10
248 28 262 80 15 60 -5 216 -28 216 -3 0 -2 -21 2 -46 10 -72 8 -143 -6 -169
-12 -22 -87 -62 -97 -51 -2 2 -19 0 -36 -5 -36 -11 -242 -13 -299 -4 -97 16
-120 28 -135 70 -8 22 -16 64 -19 93 -5 47 -4 51 13 45 10 -3 31 -17 47 -30
86 -71 188 -87 194 -31 3 23 10 30 45 39 23 6 54 15 70 20 25 7 27 6 27 -21 0
-36 9 -60 23 -60 5 0 25 12 44 26 34 26 65 77 77 127 9 40 -10 33 -24 -8 -6
-20 -23 -49 -37 -65 -25 -30 -63 -41 -63 -17 0 6 -3 22 -6 34 -5 16 2 26 31
46 37 25 28 46 -11 24z"/>
<path d="M4245 7279 c2 -33 7 -65 11 -70 3 -5 14 -51 25 -102 11 -51 21 -100
24 -110 5 -23 62 -124 88 -157 26 -33 20 -19 -26 62 -22 39 -43 94 -51 135 -8
37 -23 105 -35 150 -12 45 -21 88 -20 95 4 30 -2 58 -11 58 -7 0 -9 -23 -5
-61z"/>
<path d="M3900 6970 c0 -11 -6 -23 -14 -26 -8 -3 -12 -16 -11 -32 2 -15 6 -63
9 -106 4 -43 8 -88 11 -100 2 -12 6 -39 9 -61 3 -22 9 -60 15 -85 5 -25 12
-61 15 -80 3 -19 12 -54 20 -77 8 -24 13 -43 10 -43 -3 0 2 -7 10 -16 9 -8 16
-21 16 -28 0 -19 58 -134 93 -185 31 -46 105 -121 120 -121 13 0 7 12 -37 74
-24 33 -52 77 -63 96 -10 19 -39 67 -64 105 -79 124 -109 214 -95 291 l7 36
76 -6 c61 -4 90 -12 147 -42 39 -20 78 -41 86 -48 25 -21 90 -56 103 -56 7 0
3 6 -8 12 -11 6 -22 14 -25 17 -6 7 -24 17 -112 64 -95 51 -148 87 -173 119
-23 28 -84 166 -105 236 -22 73 -40 101 -40 62z m61 -167 c17 -38 32 -72 33
-78 1 -5 7 -20 14 -32 25 -45 14 -59 -43 -53 -33 3 -43 22 -50 90 -10 94 -6
140 11 140 3 0 19 -30 35 -67z"/>
<path d="M4401 6807 c2 -1 12 -9 22 -16 15 -12 17 -12 11 3 -3 9 -13 16 -22
16 -8 0 -13 -1 -11 -3z"/>
<path d="M5526 6754 c3 -16 10 -49 15 -74 10 -43 13 -283 5 -365 -5 -49 -15
-129 -22 -172 -3 -20 -1 -33 6 -33 5 0 10 6 11 13 1 14 3 33 14 112 4 33 9 83
11 110 1 28 3 50 4 50 0 0 2 37 3 83 1 45 0 82 -3 82 -3 0 -5 21 -5 48 0 56
-20 151 -34 165 -7 7 -9 1 -5 -19z"/>
<path d="M4445 6760 c3 -5 11 -10 16 -10 6 0 7 5 4 10 -3 6 -11 10 -16 10 -6
0 -7 -4 -4 -10z"/>
<path d="M5170 6497 c3 -3 23 -6 45 -8 22 -2 49 -9 61 -16 11 -7 23 -11 25 -8
3 2 18 -7 33 -20 16 -14 26 -25 21 -25 -4 0 -2 -7 5 -15 16 -19 17 -100 1
-119 -8 -10 -9 -16 -1 -21 16 -10 34 44 34 103 1 37 -4 56 -14 62 -8 5 -11 10
-5 10 5 0 -7 12 -28 26 -29 19 -55 27 -110 31 -40 3 -70 3 -67 0z"/>
<path d="M5004 6434 c-18 -14 -18 -15 4 -4 12 6 22 13 22 15 0 8 -5 6 -26 -11z"/>
<path d="M5214 6436 c-3 -8 -14 -18 -25 -21 -10 -4 -19 -10 -19 -15 0 -5 7 -7
15 -4 11 5 15 -1 15 -24 0 -27 -14 -145 -25 -211 -2 -14 -7 -53 -10 -88 -7
-66 1 -78 31 -48 10 9 11 15 4 15 -8 0 -10 19 -6 66 7 76 10 84 39 84 17 0 19
2 7 9 -8 6 -18 7 -23 4 -8 -5 -2 86 9 142 11 56 13 95 4 100 -6 4 -13 -1 -16
-9z"/>
<path d="M4970 6399 c0 -5 5 -7 10 -4 6 3 10 8 10 11 0 2 -4 4 -10 4 -5 0 -10
-5 -10 -11z"/>
<path d="M4935 6353 c-10 -21 -19 -41 -21 -44 -2 -3 3 -17 11 -32 7 -14 11
-28 8 -31 -9 -9 56 -36 88 -36 40 0 35 6 -10 13 -32 5 -42 13 -59 47 -7 12 -8
75 -2 75 1 0 3 10 6 23 6 32 -1 27 -21 -15z"/>
<path d="M4391 6268 c3 -52 -44 -248 -72 -299 -5 -11 -8 -19 -5 -19 3 0 0 -15
-5 -32 -14 -44 -18 -65 -25 -120 -6 -41 -4 -47 16 -58 20 -11 21 -10 11 8 -12
22 -6 83 14 155 8 26 12 47 10 47 -2 0 3 16 11 35 18 45 64 236 64 269 0 14
-4 28 -10 31 -6 3 -9 -4 -9 -17z"/>
<path d="M5512 6070 c-2 -25 -22 -125 -36 -180 -2 -8 -7 -27 -11 -42 -5 -18
-3 -28 4 -28 6 0 11 1 12 3 0 1 3 22 6 47 3 25 9 47 14 48 5 2 7 7 5 10 -2 4
0 27 5 52 17 88 21 120 12 120 -5 0 -10 -14 -11 -30z"/>
<path d="M9589 5910 c-3 -154 1 -593 5 -597 7 -7 76 -6 83 1 4 3 7 149 7 324
l1 317 -47 0 -48 0 -1 -45z"/>
<path d="M5846 5942 c-13 -3 -16 -12 -14 -35 l3 -32 70 -2 c39 -1 78 -2 87 -2
15 -1 17 -25 17 -268 0 -148 0 -275 0 -283 1 -12 11 -14 44 -12 l42 4 -2 279
-2 279 90 0 89 0 0 35 c0 26 -4 35 -17 36 -63 3 -393 3 -407 1z"/>
<path d="M6379 5935 c0 -5 -1 -148 -2 -317 l-2 -306 33 -4 c18 -2 37 -1 44 3
8 5 12 51 12 141 l1 133 72 1 c74 2 79 -1 88 -46 1 -3 17 -37 38 -76 20 -40
33 -74 30 -78 -4 -3 -2 -6 4 -6 5 0 18 -17 27 -38 16 -36 18 -37 61 -34 40 4
44 6 34 23 -5 10 -6 19 -2 19 4 0 3 4 -4 8 -12 8 -123 216 -123 232 0 6 7 10
15 10 8 0 15 5 15 10 0 6 4 10 9 10 6 0 23 12 38 27 15 14 21 23 13 18 -12 -7
-12 -5 1 11 66 77 24 206 -81 252 -41 17 -320 24 -321 7z m329 -90 c23 -20 27
-31 26 -76 0 -31 -5 -54 -12 -57 -7 -2 -10 -8 -7 -12 14 -22 -56 -40 -153 -40
l-99 0 0 105 0 106 109 -2 c99 -1 112 -3 136 -24z"/>
<path d="M7126 5930 c-7 -23 -93 -262 -104 -290 -5 -14 -9 -27 -9 -30 0 -3 -6
-16 -13 -30 -8 -14 -15 -31 -16 -38 -1 -8 -6 -21 -10 -30 -4 -9 -8 -19 -9 -22
-6 -26 -39 -117 -45 -125 -4 -5 -10 -21 -13 -35 -6 -23 -4 -25 33 -25 35 0 41
4 52 30 7 17 13 32 13 35 1 3 7 22 14 43 l13 37 133 0 133 0 22 -69 23 -69 42
-4 c45 -3 46 -1 27 45 -7 16 -12 34 -12 41 0 6 -4 16 -8 22 -8 9 -61 148 -66
176 -2 7 -10 30 -20 50 -9 21 -16 41 -16 45 0 4 -22 64 -48 132 -47 122 -48
124 -79 125 -20 1 -34 -5 -37 -14z m93 -244 c24 -73 42 -139 40 -145 -3 -8
-36 -13 -99 -14 -78 -2 -95 1 -96 13 0 8 13 51 28 95 16 44 31 88 33 98 11 53
29 87 44 87 4 0 26 -60 50 -134z"/>
<path d="M7433 5942 c-19 -3 -23 -10 -23 -38 l0 -34 89 0 89 0 0 -275 c1 -151
3 -278 6 -283 2 -4 22 -6 43 -4 l38 4 -2 279 -1 279 89 0 89 0 0 35 c0 19 -3
35 -7 36 -26 3 -392 3 -410 1z"/>
<path d="M7913 5942 c-19 -3 -23 -10 -23 -38 l0 -34 89 0 90 0 -2 -279 -2
-279 43 -4 42 -3 1 45 c0 25 0 152 0 283 l-1 237 89 0 89 0 4 35 c2 20 0 35
-7 36 -36 3 -394 3 -412 1z"/>
<path d="M8560 5940 c0 -3 -19 -14 -41 -25 -50 -24 -96 -88 -108 -150 -12 -62
-6 -273 7 -307 7 -16 9 -28 6 -28 -3 0 15 -22 41 -49 80 -84 213 -100 288 -33
9 8 17 12 17 7 0 -25 68 90 76 128 5 26 6 204 1 262 -7 83 -66 160 -143 185
-38 13 -144 20 -144 10z m147 -96 c52 -32 58 -57 58 -223 0 -115 -3 -155 -12
-158 -7 -3 -13 -11 -13 -19 0 -25 -61 -54 -114 -54 -56 0 -110 33 -127 78 -12
30 -14 240 -4 296 4 21 14 40 21 43 8 3 11 9 8 14 -3 5 14 18 38 29 47 21 105
19 145 -6z"/>
<path d="M9029 5940 c-21 -5 -21 -6 -21 -305 0 -165 1 -307 1 -315 1 -12 10
-15 41 -12 33 3 40 8 41 26 0 11 1 74 1 139 l-1 117 68 0 68 0 41 -79 c23 -43
38 -81 35 -85 -4 -3 -1 -6 5 -6 10 0 28 -38 24 -52 -1 -5 2 -8 8 -8 6 0 10 -6
10 -14 0 -22 27 -38 70 -40 38 -2 51 6 30 19 -6 4 -8 11 -5 16 4 5 2 9 -3 9
-8 0 -23 35 -21 49 0 2 -3 7 -8 10 -14 9 -93 160 -93 176 0 8 10 20 23 26 25
14 82 59 73 59 -4 0 0 13 8 29 19 36 23 90 8 117 -6 12 -8 24 -5 28 3 3 1 6
-5 6 -7 0 -12 5 -12 10 0 14 -51 59 -67 60 -7 0 -13 4 -13 8 0 9 -4 10 -157
14 -67 2 -132 1 -144 -2z m306 -93 c23 -19 27 -30 27 -77 -1 -48 -5 -58 -32
-82 -16 -16 -43 -28 -58 -29 -26 -1 -143 -1 -169 1 -10 0 -13 28 -12 105 l0
105 109 0 c99 0 111 -2 135 -23z"/>
<path d="M10044 5942 c-22 -3 -34 -26 -74 -142 -12 -36 -27 -76 -33 -90 -5
-14 -12 -34 -14 -45 -2 -10 -7 -22 -11 -25 -4 -3 -8 -14 -10 -25 -2 -11 -10
-32 -17 -47 -7 -15 -16 -41 -20 -58 -4 -16 -11 -30 -17 -30 -6 0 -9 -3 -6 -6
5 -5 -18 -78 -47 -146 -6 -16 -1 -18 37 -18 l44 0 23 70 22 70 134 0 133 0 24
-71 c13 -39 27 -70 31 -70 4 1 23 1 42 1 31 0 34 2 26 18 -5 9 -10 22 -12 27
-1 6 -4 17 -6 25 -2 8 -3 19 -3 24 1 5 -2 12 -7 15 -5 3 -24 49 -42 101 -18
52 -39 109 -47 127 -8 17 -14 36 -14 43 0 6 -7 24 -15 40 -8 16 -16 37 -18 47
-2 10 -11 36 -21 58 -9 21 -18 46 -20 55 -9 46 -24 59 -62 52z m46 -199 c14
-42 25 -79 26 -82 0 -3 6 -19 13 -36 17 -41 26 -95 15 -95 -5 -1 -48 -2 -96
-4 -85 -2 -88 -1 -88 20 0 37 81 274 93 274 7 0 23 -35 37 -77z"/>
<path d="M2027 5924 c-1 -1 -36 -5 -77 -9 -93 -9 -98 -10 -135 -18 -16 -4 -41
-10 -55 -13 -14 -3 -34 -7 -45 -9 -11 -2 -20 -4 -20 -5 0 -1 -7 -3 -15 -5 -8
-2 -26 -7 -40 -10 -14 -3 -32 -8 -40 -10 -8 -2 -15 -4 -15 -5 0 -1 -8 -3 -19
-5 -10 -2 -23 -8 -29 -14 -6 -6 -17 -11 -24 -11 -8 0 -33 -9 -55 -20 -23 -11
-48 -20 -55 -20 -7 0 -13 -3 -13 -7 0 -5 -20 -16 -45 -26 -25 -11 -45 -23 -45
-29 0 -5 -4 -6 -10 -3 -5 3 -10 1 -10 -4 0 -6 -5 -11 -11 -11 -5 0 -29 -15
-51 -32 -41 -33 -47 -38 -107 -90 -48 -43 -138 -176 -146 -218 -2 -8 -8 -35
-15 -59 -13 -49 -11 -159 3 -178 5 -7 7 -13 3 -13 -4 0 1 -15 11 -32 9 -18 17
-37 18 -41 0 -4 7 -12 15 -17 8 -5 11 -10 7 -10 -15 0 104 -109 133 -122 17
-7 30 -16 30 -20 0 -5 6 -8 13 -8 8 0 29 -7 47 -16 32 -17 79 -30 135 -40 17
-3 44 -9 62 -14 51 -13 237 -7 256 9 34 28 20 38 -55 40 -93 3 -202 17 -238
31 -3 1 -8 2 -12 1 -5 0 -8 4 -8 10 0 5 -4 8 -9 4 -5 -3 -12 -1 -16 5 -4 6
-10 8 -15 5 -4 -3 -11 2 -14 11 -3 8 -10 13 -14 10 -5 -3 -20 6 -35 20 -15 13
-29 24 -32 24 -3 0 -4 2 -2 4 1 2 -10 14 -25 25 -86 68 -120 280 -63 394 8 17
15 36 15 44 0 7 5 13 10 13 6 0 10 7 10 15 0 8 5 15 11 15 5 0 7 5 4 10 -3 6
-1 10 4 10 6 0 11 5 11 11 0 6 15 26 34 44 19 18 32 36 29 39 -4 3 -1 6 5 6 6
0 23 11 38 24 51 46 64 56 64 49 0 -4 7 2 15 13 8 10 15 15 15 10 0 -5 10 0
23 11 49 45 302 146 362 144 2 0 19 5 37 10 89 25 379 28 488 5 13 -3 42 -8
65 -12 50 -8 50 -8 105 -24 59 -18 72 -21 88 -22 6 -1 12 -5 12 -10 0 -4 11
-8 24 -8 14 0 28 -4 31 -10 3 -5 15 -10 26 -10 10 0 19 -4 19 -10 0 -5 8 -10
18 -10 9 0 28 -9 42 -20 14 -11 31 -20 38 -20 6 0 12 -5 12 -11 0 -5 5 -7 10
-4 6 3 13 -1 16 -9 3 -9 10 -14 14 -11 4 3 11 -2 14 -11 4 -9 9 -14 12 -11 3
3 14 -2 23 -11 10 -10 34 -31 52 -48 52 -48 88 -92 81 -98 -3 -3 -1 -6 5 -6
10 0 69 -112 80 -152 11 -41 12 -216 2 -250 -6 -18 -12 -40 -14 -48 -2 -8 -4
-16 -5 -17 -2 -2 -3 -6 -4 -10 -5 -25 -55 -115 -86 -153 -44 -56 -130 -145
-130 -134 0 4 -9 -2 -20 -14 -12 -12 -25 -22 -31 -22 -5 0 -26 -11 -46 -25
-20 -13 -40 -22 -45 -19 -4 3 -8 0 -8 -7 0 -7 -3 -9 -7 -6 -3 4 -17 0 -30 -8
-13 -9 -23 -13 -23 -10 0 2 -11 0 -26 -5 -42 -16 -85 -22 -174 -25 -110 -3
-174 16 -191 57 -14 33 -5 118 14 130 6 4 8 8 3 8 -5 0 -4 6 2 13 6 6 11 15
11 20 0 4 8 21 16 37 9 17 13 30 9 30 -3 0 0 10 8 23 13 19 62 134 63 147 1 3
9 20 18 38 10 17 15 32 11 32 -3 0 0 10 8 23 19 31 88 195 94 226 1 8 8 17 14
21 7 4 11 9 10 11 -2 5 9 35 35 94 46 107 48 115 37 140 -10 22 -16 24 -63 20
-31 -3 -75 -17 -112 -36 -34 -18 -81 -42 -104 -54 -23 -12 -50 -28 -59 -36 -9
-8 -19 -13 -21 -11 -2 2 -15 -6 -28 -16 -50 -40 -20 -73 42 -47 45 19 79 19
86 1 7 -16 -18 -103 -34 -122 -6 -8 -8 -14 -4 -14 4 0 2 -7 -5 -15 -7 -8 -10
-15 -6 -15 4 0 -1 -11 -10 -25 -9 -14 -12 -25 -8 -25 5 0 4 -4 -3 -8 -6 -4
-14 -19 -17 -32 -2 -14 -12 -40 -21 -58 -9 -18 -18 -38 -19 -45 -1 -7 -10 -30
-20 -52 -10 -22 -19 -44 -20 -50 -2 -5 -8 -23 -14 -38 -7 -16 -12 -31 -12 -34
0 -3 -7 -19 -15 -36 -30 -65 -135 -332 -135 -344 0 -7 -5 -13 -11 -13 -5 0 -8
-4 -4 -9 3 -5 1 -12 -5 -16 -6 -4 -8 -10 -5 -15 3 -5 1 -11 -5 -15 -5 -3 -10
-15 -10 -26 0 -10 -5 -19 -12 -19 -6 0 -8 -3 -5 -6 3 -4 1 -16 -5 -28 -7 -11
-13 -23 -14 -26 -1 -5 -3 -10 -20 -55 -4 -11 -8 -23 -9 -27 -2 -5 -4 -11 -5
-15 -1 -5 -2 -11 -1 -15 0 -5 -3 -8 -7 -8 -5 0 -9 -6 -10 -12 0 -13 -36 -104
-71 -183 -36 -80 -74 -188 -76 -216 -5 -56 47 -68 145 -32 95 35 200 85 200
96 0 6 3 8 6 5 3 -4 15 3 25 13 21 21 21 56 1 51 -7 -1 -20 -4 -30 -5 -9 -2
-34 -11 -56 -20 -21 -9 -44 -17 -51 -17 -22 0 -38 29 -31 57 9 39 10 43 30 88
25 57 34 79 32 85 0 3 7 16 17 30 9 13 17 32 17 42 0 10 4 18 9 18 5 0 12 12
16 28 3 15 20 55 37 90 16 34 31 68 32 75 2 6 8 23 13 37 6 14 11 29 11 33 1
4 7 14 15 21 11 12 22 12 68 -1 30 -8 63 -16 74 -19 48 -12 182 -4 282 17 29
5 54 9 55 8 2 -1 13 3 26 10 13 7 31 14 40 16 9 1 44 16 77 31 33 15 63 27 68
26 4 -1 7 2 7 7 0 5 14 14 30 21 17 7 30 17 30 22 0 5 5 6 10 3 6 -3 10 -1 10
4 0 6 6 11 13 11 7 0 19 9 27 20 8 11 19 20 24 20 18 0 160 156 190 210 41 72
57 103 60 118 1 9 6 24 9 32 14 31 24 107 21 162 l-2 55 91 3 c155 4 388 1
457 -5 36 -3 78 -7 94 -8 16 -1 31 -8 34 -14 2 -9 -12 -13 -50 -14 -84 -1
-225 2 -278 5 -54 4 -81 -7 -63 -25 6 -6 41 -10 84 -10 41 1 236 3 434 4 275
2 359 6 357 15 -1 7 8 49 19 95 21 81 21 84 4 177 -9 52 -19 105 -22 118 -5
20 -1 22 38 23 l44 1 -44 9 c-23 4 -52 11 -63 15 -18 5 -19 4 -5 -18 37 -57
49 -215 24 -313 l-13 -50 -95 -6 c-94 -6 -203 -4 -374 7 -171 10 -251 14 -395
20 -80 3 -158 7 -175 8 -16 0 -39 -2 -50 -5 -33 -10 -62 6 -68 40 -4 17 -6 32
-6 34 1 5 -55 113 -65 124 -28 32 -36 43 -32 43 3 0 -19 25 -49 55 -30 30 -59
55 -65 55 -5 0 -10 5 -10 10 0 6 -7 10 -15 10 -8 0 -15 3 -15 8 0 4 -10 12
-23 18 -118 61 -189 94 -200 94 -7 0 -17 4 -23 8 -8 8 -86 34 -109 37 -5 1
-17 4 -25 8 -8 3 -28 8 -45 11 -16 2 -30 5 -30 6 0 4 -123 24 -220 35 -54 7
-322 14 -328 9z"/>
<path d="M5405 5719 c-16 -10 -64 -26 -105 -35 -41 -8 -82 -18 -90 -21 -8 -4
-19 -5 -23 -4 -5 1 -25 -3 -45 -8 -20 -5 -54 -12 -76 -15 -21 -4 -42 -9 -47
-12 -11 -6 -225 -8 -236 -1 -9 5 -67 13 -158 21 -48 4 -53 4 -25 -4 19 -5 55
-11 80 -14 25 -3 56 -8 70 -11 81 -17 230 -26 230 -14 0 4 7 6 15 3 11 -5 96
11 175 32 8 2 67 17 130 34 123 32 162 48 154 62 -7 11 -14 9 -49 -13z"/>
<path d="M4985 5543 c-17 -14 -58 -51 -93 -82 -35 -31 -67 -55 -72 -53 -6 1
-10 -5 -10 -14 0 -30 62 -73 120 -84 75 -15 91 -22 82 -38 -9 -14 -19 -16
-107 -28 -67 -9 -79 -9 -150 0 -57 8 -91 27 -107 61 -9 19 -6 30 12 60 12 20
33 58 46 86 13 27 29 49 34 49 6 0 9 3 8 8 -1 4 3 17 10 30 7 12 9 22 4 22
-12 0 -36 -28 -56 -65 -9 -16 -34 -61 -56 -100 -25 -45 -39 -83 -40 -107 0
-59 -20 -135 -41 -163 -20 -24 -79 -37 -79 -16 0 5 -7 11 -15 15 -31 11 -14
-15 20 -31 33 -16 37 -16 69 0 34 16 42 33 51 107 4 32 24 68 37 66 7 -1 27
-9 44 -18 60 -32 175 -37 319 -13 6 1 15 3 20 3 6 1 12 13 13 27 2 27 -21 44
-68 50 -77 10 -140 39 -140 64 0 4 16 22 35 41 19 19 35 30 35 26 0 -4 12 6
26 23 14 17 31 28 37 24 7 -3 9 -3 5 1 -3 4 7 20 24 35 40 35 23 48 -17 14z"/>
<path d="M3710 4897 c-3 -3 -23 -7 -45 -10 -38 -4 -50 -8 -92 -24 -10 -3 -21
-7 -24 -7 -17 -2 -139 -71 -139 -78 0 -4 -7 -8 -15 -8 -8 0 -15 -4 -15 -10 0
-5 -6 -10 -13 -10 -7 0 -19 -9 -27 -20 -8 -11 -17 -20 -21 -20 -4 0 -25 -18
-47 -40 -22 -22 -38 -40 -37 -40 2 0 -9 -13 -23 -29 -38 -40 -52 -59 -53 -68
0 -5 -7 -12 -15 -16 -8 -5 -12 -12 -9 -18 4 -5 1 -9 -6 -9 -7 0 -10 -3 -6 -6
3 -3 -2 -14 -11 -25 -9 -11 -17 -23 -18 -27 0 -4 -7 -20 -14 -37 -7 -16 -13
-33 -12 -37 1 -5 -3 -8 -8 -8 -5 0 -9 -3 -9 -7 1 -5 0 -10 -1 -13 -1 -3 -3
-12 -5 -20 -2 -8 -7 -26 -11 -40 -14 -51 -13 -221 2 -259 31 -75 47 -101 89
-143 21 -21 96 -75 105 -76 3 0 19 -6 35 -13 35 -14 193 -18 245 -6 19 5 41 9
48 9 6 1 12 5 12 10 0 4 4 7 8 5 13 -4 142 55 142 65 0 5 5 6 10 3 6 -3 10 -1
10 5 0 6 5 8 10 5 6 -3 13 1 16 9 3 9 11 16 18 16 6 0 28 16 48 35 20 19 39
35 41 35 3 0 23 18 46 40 22 22 38 40 35 40 -4 0 6 13 22 29 41 42 54 59 54
71 0 5 5 10 10 10 6 0 10 6 10 14 0 8 4 16 8 18 12 4 58 104 73 158 7 25 14
52 17 60 2 8 5 48 7 87 3 71 -19 184 -37 191 -4 2 -6 8 -2 13 3 5 1 9 -5 9 -5
0 -12 8 -15 18 -6 19 -76 98 -76 86 0 -4 -7 1 -15 12 -8 10 -15 15 -15 9 0 -6
-3 -5 -8 1 -13 21 -122 54 -195 60 -39 3 -74 4 -77 1z m75 -90 c11 -3 20 -6
20 -7 0 -1 9 -3 19 -5 11 -2 23 -11 28 -19 5 -9 16 -16 23 -16 8 0 15 -6 15
-13 0 -7 11 -23 25 -35 13 -12 27 -34 31 -49 4 -15 12 -34 18 -42 7 -9 11 -60
11 -130 0 -115 -3 -141 -24 -193 -6 -16 -8 -28 -6 -28 3 0 -4 -17 -15 -37 -11
-21 -20 -43 -20 -50 0 -7 -5 -13 -11 -13 -5 0 -7 -4 -4 -10 3 -5 1 -10 -4 -10
-6 0 -11 -7 -11 -15 0 -8 -5 -15 -11 -15 -5 0 -7 -5 -4 -10 3 -6 -1 -13 -9
-16 -9 -3 -16 -12 -16 -20 0 -8 -4 -14 -10 -14 -5 0 -10 -5 -10 -10 0 -17 -98
-109 -154 -145 -94 -60 -214 -77 -296 -42 -37 16 -120 86 -120 101 0 4 -9 21
-21 37 -11 16 -18 29 -14 29 3 0 3 6 -2 13 -25 40 -24 203 2 307 4 14 7 31 7
38 1 6 4 12 8 12 3 0 7 10 7 22 1 13 7 24 13 26 5 2 8 8 4 13 -3 5 -1 9 3 9 5
0 15 17 22 38 8 20 17 39 20 42 3 3 19 24 35 48 16 23 33 42 37 42 5 0 8 3 7
8 -2 4 12 21 30 37 52 48 61 55 71 55 5 0 11 7 15 15 3 8 9 14 13 13 4 -1 19
4 33 12 59 32 172 45 245 27z"/>
<path d="M5456 4889 c-33 -9 -126 -60 -126 -70 0 -4 -7 -15 -16 -24 -26 -25
-42 -85 -38 -135 6 -66 7 -70 16 -70 4 0 8 -7 8 -15 0 -8 5 -15 12 -15 6 0 9
-3 5 -6 -3 -4 -1 -12 6 -19 7 -7 26 -31 44 -52 18 -22 70 -78 115 -126 46 -47
88 -92 93 -99 46 -59 58 -171 26 -243 -34 -77 -131 -157 -222 -182 -42 -12
-216 -8 -231 5 -8 6 -18 9 -21 5 -4 -3 -7 -1 -7 5 0 7 -6 12 -13 12 -19 0 -80
59 -105 101 -33 54 -35 141 -7 211 24 58 20 82 -11 76 -25 -4 -81 -64 -106
-113 -22 -41 -33 -151 -17 -161 5 -3 9 -14 9 -25 0 -10 5 -19 12 -19 6 0 8 -3
5 -7 -10 -9 89 -103 108 -103 8 0 15 -5 15 -11 0 -5 5 -7 10 -4 6 3 10 2 10
-2 0 -13 116 -37 185 -38 33 -1 87 5 120 13 33 7 68 15 77 17 43 9 178 86 186
107 2 4 10 8 17 8 7 0 19 10 28 23 8 12 25 33 37 47 24 28 59 91 67 124 3 11
7 52 8 91 5 104 -23 149 -204 334 -62 62 -118 126 -126 140 -27 54 1 149 50
167 59 21 154 7 186 -28 9 -10 18 -15 21 -12 3 2 11 -9 18 -26 7 -16 16 -30
20 -30 4 0 18 -33 30 -72 27 -86 23 -78 47 -83 14 -2 24 4 31 20 14 30 8 185
-7 214 -7 12 -9 21 -6 21 3 0 -2 11 -10 24 -18 28 -39 28 -59 1 -13 -17 -17
-18 -57 -5 -24 7 -46 14 -49 15 -3 1 -24 7 -46 13 -42 12 -93 12 -138 1z"/>
<path d="M6637 4894 c-1 -1 -20 -5 -42 -9 -46 -8 -69 -13 -72 -15 -2 -2 -6 -3
-10 -4 -5 -1 -25 -10 -47 -19 -21 -9 -42 -17 -46 -17 -4 0 -13 -7 -20 -15 -7
-9 -15 -13 -18 -11 -16 16 -219 -158 -282 -242 -14 -19 -30 -39 -35 -45 -21
-24 -49 -72 -47 -79 1 -5 -2 -8 -7 -8 -9 0 -46 -79 -43 -92 1 -5 -3 -8 -8 -8
-5 0 -9 -3 -9 -7 1 -5 0 -11 -1 -15 -1 -5 -4 -12 -5 -18 -1 -5 -3 -11 -5 -12
-1 -2 -3 -10 -5 -18 -2 -8 -7 -26 -11 -40 -9 -32 -9 -197 -1 -232 11 -41 107
-177 107 -151 0 4 7 -2 15 -13 8 -10 15 -15 15 -10 0 5 9 1 20 -9 11 -10 20
-15 20 -11 0 3 14 -1 31 -10 33 -17 161 -22 229 -10 82 15 260 92 313 135 76
62 92 83 88 117 -2 16 -46 5 -70 -17 -11 -10 -24 -19 -28 -19 -4 0 -22 -13
-39 -30 -18 -16 -35 -26 -38 -23 -3 4 -6 1 -6 -5 0 -7 -3 -11 -7 -10 -5 0 -26
-7 -48 -17 -53 -24 -56 -25 -153 -32 -80 -5 -104 -1 -172 31 -34 15 -81 57
-75 67 3 4 1 10 -5 14 -16 10 -41 78 -33 86 5 5 33 11 63 15 79 9 231 49 287
75 26 12 51 21 56 21 4 -1 7 3 7 9 0 5 4 8 9 5 5 -3 20 3 34 14 14 11 30 20
36 20 6 0 11 5 11 10 0 6 6 10 13 10 32 0 237 189 237 219 0 5 4 11 8 13 10 4
65 98 57 98 -3 0 -1 9 4 19 20 37 23 114 6 154 -14 34 -85 118 -85 101 0 -4
-8 0 -17 9 -10 8 -21 16 -25 16 -5 1 -9 1 -10 2 -24 6 -136 17 -141 13z m43
-98 c36 -16 78 -63 88 -99 9 -32 8 -103 -2 -146 -8 -35 -30 -81 -38 -81 -5 0
-8 -6 -8 -13 0 -7 -8 -23 -17 -36 -30 -38 -93 -103 -93 -95 0 4 -8 -3 -19 -14
-10 -12 -21 -22 -25 -22 -4 0 -16 -9 -28 -20 -12 -11 -28 -20 -35 -20 -7 0
-13 -4 -13 -10 0 -5 -5 -10 -10 -10 -6 0 -29 -8 -53 -19 -38 -17 -123 -43
-129 -41 -2 1 -15 -3 -30 -9 -15 -6 -58 -13 -95 -17 -37 -3 -72 -7 -78 -7 -11
-2 -12 119 -2 169 13 58 78 203 105 233 7 7 21 26 30 40 33 51 98 122 105 115
3 -3 10 4 17 15 6 12 17 21 25 21 8 0 19 8 24 18 6 9 11 13 11 9 0 -5 14 1 30
13 17 12 30 18 30 14 0 -3 7 -1 15 6 8 7 15 9 15 6 0 -4 8 -2 18 4 21 13 129
10 162 -4z"/>
<path d="M10049 4896 c-3 -3 -20 -8 -39 -11 -44 -8 -162 -64 -173 -81 -4 -8
-13 -14 -20 -14 -13 0 -87 -94 -87 -111 0 -5 -5 -9 -11 -9 -5 0 -7 -4 -4 -10
3 -5 2 -10 -3 -10 -5 0 -12 -12 -15 -27 -3 -16 -8 -39 -11 -53 -4 -14 -7 -37
-8 -51 0 -15 -11 -34 -25 -45 -13 -10 -33 -25 -43 -33 -11 -9 -31 -25 -45 -36
-57 -45 -162 -155 -148 -155 5 0 -1 -7 -11 -15 -11 -8 -16 -15 -10 -15 5 0 5
-3 -1 -8 -32 -23 -64 -139 -59 -219 2 -49 47 -153 66 -153 4 0 13 -6 20 -14
17 -16 78 -49 78 -41 0 3 9 1 21 -5 56 -31 260 -1 381 54 32 15 61 26 64 25 4
0 10 3 13 8 8 11 61 43 84 50 9 3 17 8 17 12 0 4 9 7 20 8 17 2 19 -3 15 -29
-3 -17 -11 -42 -18 -57 -8 -14 -12 -32 -11 -38 1 -7 2 -20 3 -29 0 -8 5 -13
10 -9 5 3 12 1 15 -4 6 -9 60 -6 77 4 5 4 18 8 30 10 40 8 187 84 197 101 13
24 -15 47 -40 33 -34 -18 -88 -21 -94 -5 -6 14 14 75 52 161 10 22 18 42 19
45 1 3 8 19 15 35 7 17 14 32 15 35 3 9 18 44 42 99 12 29 23 60 23 67 0 8 5
14 10 14 6 0 10 6 10 13 0 8 12 42 27 78 29 70 42 211 21 236 -6 7 -8 13 -4
13 11 0 -26 53 -61 88 -18 17 -36 32 -39 32 -3 0 -19 9 -35 21 -16 11 -29 18
-29 15 0 -3 -17 2 -37 11 -35 15 -252 30 -264 19z m186 -59 c11 -3 22 -6 25
-7 3 -1 8 -2 13 -1 4 0 7 -3 7 -9 0 -5 7 -10 15 -10 8 0 15 -5 15 -12 0 -6 3
-8 6 -5 8 8 40 -27 60 -66 17 -32 17 -137 0 -137 -6 0 -29 9 -51 19 -37 18
-55 26 -95 39 -33 11 -208 6 -247 -7 -2 -1 -6 -1 -10 -2 -5 0 -12 -4 -18 -9
-12 -10 -98 -33 -105 -29 -10 8 -6 65 6 89 32 64 127 133 202 146 15 3 28 7
30 9 5 5 122 -2 147 -8z m-56 -241 c64 -13 102 -43 126 -99 23 -57 -7 -203
-62 -289 -12 -21 -23 -42 -23 -48 0 -5 -3 -10 -8 -10 -4 0 -18 -18 -32 -40
-14 -22 -30 -40 -37 -40 -6 0 -15 -5 -19 -12 -5 -7 -3 -8 7 -3 12 8 12 6 0 -8
-7 -9 -20 -17 -28 -17 -8 0 -11 -4 -8 -10 3 -5 3 -10 -2 -10 -4 0 -24 -14 -43
-30 -19 -16 -41 -30 -47 -30 -7 0 -13 -4 -13 -10 0 -5 -6 -10 -14 -10 -8 0
-22 -7 -30 -16 -9 -8 -16 -12 -16 -8 0 3 -6 2 -12 -3 -7 -6 -26 -14 -43 -18
-16 -5 -37 -10 -45 -12 -28 -8 -156 -7 -176 2 -20 9 -29 12 -41 14 -11 2 -68
51 -68 59 -1 4 -8 21 -16 37 -15 29 -17 89 -6 145 14 69 60 161 92 182 5 4 6
8 2 8 -4 0 2 10 14 23 11 12 28 32 36 44 8 13 19 20 24 17 5 -3 9 2 9 10 0 9
3 16 8 16 4 0 23 14 42 30 19 17 43 33 53 36 9 3 17 10 17 15 0 6 5 7 10 4 6
-3 10 -2 10 3 0 9 110 61 145 68 11 3 36 8 55 12 38 9 86 8 139 -2z"/>
<path d="M4658 4863 c-16 -2 -28 -9 -28 -14 0 -6 -4 -7 -10 -4 -5 3 -10 1 -10
-4 0 -6 -7 -11 -15 -11 -14 0 -97 -42 -122 -63 -7 -5 -13 -6 -13 -2 0 4 -16
-5 -35 -19 -19 -15 -35 -24 -35 -20 0 11 -40 -28 -52 -50 -7 -13 -7 -21 2 -26
15 -9 50 -1 50 12 0 5 5 6 10 3 6 -3 10 -1 10 5 0 6 4 9 9 6 5 -4 11 -1 13 4
2 6 15 13 30 15 31 6 48 -16 41 -50 -2 -11 -5 -26 -5 -32 -1 -7 -4 -13 -8 -13
-4 0 -7 -6 -7 -12 0 -7 -17 -58 -37 -113 -21 -55 -39 -104 -41 -110 -1 -5 -8
-26 -16 -45 -7 -19 -12 -38 -11 -42 1 -5 -2 -8 -8 -8 -6 0 -9 -3 -8 -7 1 -5
-6 -33 -17 -63 -11 -30 -20 -58 -21 -62 -1 -5 -3 -10 -4 -13 -1 -3 -3 -8 -5
-12 -2 -8 -7 -21 -32 -83 -8 -19 -17 -46 -19 -60 -3 -13 -9 -29 -13 -35 -5 -5
-16 -35 -26 -65 -10 -30 -20 -59 -24 -65 -3 -5 -6 -14 -7 -20 -1 -5 -6 -19
-10 -29 -6 -16 -4 -18 12 -12 10 4 28 10 39 12 11 3 25 6 30 8 6 2 22 6 36 10
18 5 29 19 38 44 7 20 21 56 31 78 11 23 22 54 26 68 3 14 10 29 15 32 5 3 7
10 4 15 -4 5 -2 9 3 9 6 0 13 12 17 28 3 15 14 35 22 45 9 9 13 17 9 17 -4 0
2 13 13 29 12 16 21 34 21 40 0 6 5 11 11 11 5 0 8 4 4 9 -3 5 -1 12 5 16 6 3
35 44 66 91 31 46 61 84 67 84 6 0 8 3 4 6 -3 3 11 24 31 47 64 70 121 127
127 127 3 0 20 13 38 30 18 16 38 30 45 30 7 0 15 7 18 15 4 8 10 12 15 9 5
-3 9 -2 9 3 0 8 21 19 95 48 22 9 57 24 77 33 84 39 73 135 -15 118 -38 -8
-157 -66 -157 -77 0 -5 -6 -9 -12 -9 -7 0 -27 -14 -45 -30 -18 -17 -35 -30
-38 -30 -7 0 -89 -85 -160 -165 -45 -50 -59 -57 -45 -21 5 13 6 27 3 30 -4 3
-1 6 5 6 7 0 11 3 10 8 -1 4 2 18 6 32 8 25 14 40 52 130 11 24 18 44 16 45
-2 0 1 13 7 28 19 49 -11 71 -81 60z"/>
<path d="M7890 4859 c-19 -5 -43 -11 -52 -13 -9 -3 -38 -14 -63 -25 -25 -11
-45 -17 -45 -13 0 3 -5 1 -12 -6 -7 -7 -20 -12 -29 -12 -10 0 -19 -3 -21 -7
-1 -5 -38 -25 -80 -46 -43 -21 -80 -43 -83 -48 -4 -5 -11 -7 -16 -4 -5 4 -9 2
-9 -3 0 -5 -9 -12 -20 -15 -27 -7 -26 8 9 89 16 37 27 74 24 81 -9 23 -55 27
-103 9 -25 -9 -49 -18 -55 -20 -48 -13 -217 -108 -247 -138 -42 -42 -5 -56 62
-22 68 34 95 30 96 -16 0 -19 -3 -42 -6 -50 -4 -8 -15 -31 -24 -51 -10 -19
-19 -42 -20 -50 -3 -14 -7 -25 -29 -84 -7 -16 -12 -32 -12 -35 0 -3 -3 -9 -6
-15 -5 -8 -29 -75 -34 -95 -1 -3 -5 -14 -10 -25 -18 -44 -47 -121 -50 -130 -2
-11 -12 -40 -26 -73 -5 -13 -25 -67 -45 -120 -19 -53 -40 -108 -45 -122 -6
-14 -13 -34 -15 -46 l-4 -21 66 22 c69 23 86 39 109 105 8 22 22 57 31 78 9
20 20 46 24 57 4 11 15 37 25 58 9 21 18 47 20 58 2 12 8 26 13 33 5 6 17 31
26 56 10 25 24 59 31 75 12 28 26 63 30 75 7 21 31 66 40 72 5 4 6 8 2 8 -5 0
2 15 15 33 13 17 22 33 20 35 -6 6 74 92 87 92 5 0 14 6 18 13 8 13 57 47 70
48 5 1 19 9 33 18 50 34 170 81 213 83 94 4 112 -12 110 -90 -1 -34 -9 -74
-18 -91 -8 -17 -13 -31 -9 -31 4 0 1 -7 -6 -15 -7 -8 -10 -15 -6 -15 4 0 -3
-19 -15 -42 -12 -24 -21 -44 -21 -45 2 -3 -4 -21 -14 -48 -4 -11 -8 -23 -9
-27 -2 -5 -4 -10 -5 -13 -1 -3 -3 -8 -4 -12 -1 -5 -7 -18 -14 -30 -7 -13 -10
-23 -7 -23 3 0 -1 -13 -9 -29 -9 -16 -12 -31 -9 -35 4 -3 1 -6 -6 -6 -7 0 -10
-4 -6 -9 3 -5 1 -12 -5 -16 -5 -3 -10 -17 -10 -31 0 -13 -4 -24 -10 -24 -6 0
-9 -3 -8 -7 3 -8 -19 -71 -48 -143 -18 -46 -35 -94 -36 -100 0 -3 -4 -13 -9
-22 -5 -10 -11 -31 -13 -47 -3 -28 11 -41 49 -44 21 -2 90 15 103 25 6 6 12 7
12 3 0 -4 11 0 25 9 13 9 31 16 40 16 8 0 15 4 15 8 0 4 14 13 30 19 45 17 43
16 63 33 59 48 60 50 46 54 -22 7 -49 4 -49 -6 0 -4 -3 -7 -7 -6 -5 1 -21 -4
-38 -11 -16 -7 -48 -14 -71 -16 -40 -3 -40 -3 -42 34 -2 24 8 61 26 102 52
115 56 124 54 132 -1 4 3 7 10 7 6 0 8 3 5 6 -3 4 -1 16 5 28 7 11 13 23 14
26 2 9 16 44 42 100 28 63 45 103 47 110 0 3 6 15 13 28 7 12 10 22 6 22 -3 0
-2 6 4 13 11 14 62 132 68 159 2 10 6 28 9 41 12 54 13 69 5 97 -15 52 -46 71
-120 75 -25 1 -61 -2 -80 -6z"/>
<path d="M9105 4858 c-45 -10 -138 -42 -203 -69 -23 -10 -46 -19 -50 -19 -4
-1 -15 -9 -24 -17 -10 -9 -18 -13 -18 -9 0 4 -13 -2 -29 -13 -16 -12 -34 -21
-40 -21 -6 0 -11 -5 -11 -11 0 -5 -4 -8 -9 -5 -5 4 -11 2 -13 -3 -1 -5 -16
-13 -31 -16 -26 -7 -27 -5 -23 18 2 14 10 36 17 49 7 12 13 26 14 30 0 3 3 10
8 14 14 14 7 62 -10 68 -21 8 -101 -3 -109 -15 -3 -5 -10 -7 -15 -4 -5 4 -9 1
-9 -4 0 -6 -5 -11 -12 -11 -15 0 -122 -52 -126 -62 -2 -4 -11 -8 -19 -8 -16 0
-85 -47 -91 -62 -2 -5 -7 -6 -12 -3 -5 3 -7 -3 -5 -12 2 -10 4 -22 4 -26 1
-10 33 -5 47 8 18 17 91 38 109 32 11 -5 15 -17 13 -42 -1 -19 -6 -35 -10 -35
-4 0 -7 -3 -6 -7 2 -9 -21 -82 -31 -98 -3 -5 -6 -12 -7 -15 0 -3 -4 -12 -7
-20 -15 -34 -89 -236 -92 -252 -2 -9 -11 -30 -19 -47 -9 -17 -14 -31 -12 -31
3 0 -7 -28 -21 -62 -28 -70 -76 -199 -99 -268 -8 -25 -19 -52 -24 -61 -8 -15
-5 -15 35 -3 24 7 53 17 63 23 11 6 22 8 24 5 10 -9 27 22 68 121 23 55 43
105 44 110 2 6 8 21 14 35 22 48 94 225 96 235 2 15 106 225 117 239 33 39 59
65 94 90 22 17 43 35 47 40 5 7 8 7 8 1 0 -6 3 -6 8 0 9 13 124 70 135 67 4
-1 7 3 7 10 0 6 3 9 6 5 4 -3 19 0 35 8 26 14 82 20 134 16 29 -2 52 -49 48
-99 -3 -34 -49 -179 -90 -282 -4 -8 -7 -17 -8 -20 -1 -3 -5 -14 -10 -25 -17
-42 -47 -120 -47 -125 -1 -7 -7 -25 -31 -85 -10 -27 -20 -54 -22 -60 -2 -9 -5
-19 -22 -62 -3 -10 -5 -21 -5 -25 1 -5 -3 -8 -8 -8 -5 0 -9 -3 -8 -7 3 -10
-22 -84 -32 -98 -16 -22 -19 -62 -6 -80 25 -35 131 -10 271 63 80 42 105 61
105 79 0 18 -25 16 -61 -3 -17 -8 -38 -17 -47 -19 -10 -2 -31 -7 -48 -10 -33
-7 -65 13 -60 37 8 39 21 77 37 105 10 17 15 34 12 37 -4 3 -1 6 5 6 7 0 12 6
12 14 0 8 16 49 35 90 19 42 35 79 35 82 0 3 12 31 26 62 25 53 45 101 49 112
1 3 7 18 13 33 7 16 12 33 12 38 0 5 5 9 10 9 6 0 9 3 8 8 -2 4 6 27 16 52 11
25 20 50 21 55 2 6 10 35 19 65 20 68 13 110 -25 146 -33 31 -89 39 -164 22z"/>
</g>
</svg>
